<svg
            width="184.06490178015528"
            height="139.78125"
            viewBox="0 0 350.00000000000006 265.79449437043417"
            class="css-1j8o68f"
            xmlns="http://www.w3.org/2000/svg"
        >
            <defs id="SvgjsDefs3119"></defs>
            <g
                id="SvgjsG3120"
                featurekey="symbolFeature-0"
                transform="matrix(1.642078990008597,0,0,1.642078990008597,92.8959056437785,-7.611405289547377)"
                fill="#ffffff"
            >
                <path
                    xmlns="http://www.w3.org/2000/svg"
                    fill-rule="evenodd"
                    clip-rule="evenodd"
                    d="M84.15,5.414l2.35,10.55l4.3-6.6c0.134-0.233,0.333-0.384,0.601-0.45  c0.267-0.066,0.517-0.017,0.75,0.15c0.232,0.133,0.383,0.316,0.449,0.55c0.067,0.267,0.018,0.517-0.149,0.75l-5.3,8.25l1.649,6.85  c0.033,0.233,0,0.467-0.1,0.7l-7.8,13.7l5.399-1.9c0.267-0.1,0.517-0.1,0.75,0c0.267,0.134,0.434,0.334,0.5,0.601  c0.101,0.267,0.101,0.517,0,0.75c-0.133,0.267-0.333,0.433-0.6,0.5l-7.55,2.649L77.8,45.314c-0.167,0.233-0.35,0.366-0.55,0.399  l-18.75,6.95v1.851h1.75c0.667,0,1,0.316,1,0.949v1.351l16.05-6.25c0.4-0.134,0.767-0.067,1.101,0.2  c0.3,0.366,0.366,0.717,0.199,1.05l-3.899,9.75c-0.134,0.3-0.4,0.483-0.8,0.55l-10.301,1.4L63,74.664l-0.05,0.351l-4.9,11.5  l-1.85,6.3c-0.101,0.3-0.317,0.5-0.65,0.6l-5.5,1.95l-5.649-1.95c-0.301-0.1-0.5-0.3-0.601-0.6l-1.85-6.3l-4.9-11.5L37,74.664  l-0.55-11.149l-10.3-1.4c-0.4-0.066-0.667-0.25-0.801-0.55l-3.949-9.75c-0.167-0.333-0.101-0.684,0.199-1.05  c0.334-0.268,0.7-0.334,1.101-0.2l16.1,6.25v-1.351c0-0.633,0.333-0.949,1-0.949h1.7v-1.851l-9.7-3.649h-0.05l-8.95-3.301  c-0.2-0.033-0.383-0.166-0.55-0.399l-1.65-2.851l-7.55-2.649c-0.267-0.067-0.45-0.233-0.55-0.5c-0.1-0.233-0.1-0.483,0-0.75  c0.033-0.267,0.184-0.467,0.45-0.601c0.233-0.1,0.483-0.1,0.75,0l5.45,1.9l-7.801-13.7c-0.1-0.233-0.133-0.467-0.1-0.7l1.55-6.85  l-5.25-8.25C7.383,10.131,7.333,9.881,7.4,9.614c0.066-0.233,0.217-0.417,0.449-0.55c0.233-0.167,0.483-0.217,0.75-0.15  C8.867,8.98,9.05,9.131,9.15,9.364l4.3,6.6l2.399-10.55c0.067-0.267,0.2-0.467,0.4-0.6c0.233-0.167,0.483-0.217,0.75-0.15  s0.467,0.217,0.6,0.45c0.167,0.233,0.217,0.483,0.15,0.75l-4.5,19.65l1.6,2.8l1.2-4.25c0.033-0.267,0.184-0.467,0.45-0.601  c0.233-0.1,0.483-0.116,0.75-0.05c0.267,0.033,0.467,0.184,0.6,0.45c0.134,0.233,0.167,0.483,0.101,0.75l-1.75,6.1l7.55,13.301  l6,2.199l-1.9-3.05c-0.166-0.233-0.217-0.483-0.149-0.75c0.066-0.267,0.217-0.467,0.45-0.6c0.232-0.134,0.482-0.184,0.75-0.15  c0.267,0.067,0.467,0.217,0.6,0.45l3.3,5.2l5.75,2.149l-5.399-11.5c-0.101-0.267-0.101-0.5,0-0.699  c0.1-0.268,0.25-0.467,0.449-0.601c0.268-0.1,0.518-0.1,0.75,0c0.268,0.101,0.467,0.267,0.601,0.5l6.2,13.3l1.75,0.65  c0.399,0.167,0.6,0.467,0.6,0.9v2.5h1.55c0.267,0,0.5,0.1,0.7,0.3c0.2,0.167,0.3,0.383,0.3,0.649v0.9H54v-0.9  c0-0.267,0.1-0.482,0.3-0.649c0.167-0.2,0.384-0.3,0.65-0.3h1.6v-2.5c0-0.434,0.2-0.733,0.601-0.9l1.699-0.65l6.2-13.3  c0.134-0.233,0.333-0.399,0.601-0.5c0.232-0.1,0.482-0.1,0.75,0c0.232,0.134,0.399,0.333,0.5,0.601c0.1,0.199,0.1,0.433,0,0.699  l-5.45,11.5l5.8-2.149l3.3-5.2c0.134-0.233,0.333-0.383,0.601-0.45c0.267-0.066,0.517-0.017,0.75,0.15  c0.199,0.133,0.333,0.333,0.399,0.6c0.067,0.267,0.017,0.517-0.149,0.75l-1.851,3.05l5.95-2.199l7.55-13.301l-1.75-6.1  c-0.066-0.267-0.033-0.517,0.101-0.75c0.133-0.267,0.316-0.417,0.55-0.45c0.267-0.066,0.533-0.05,0.8,0.05  c0.233,0.134,0.383,0.334,0.45,0.601l1.25,4.25l1.55-2.8l-4.5-19.65c-0.066-0.267-0.017-0.517,0.15-0.75  c0.1-0.233,0.283-0.384,0.55-0.45s0.517-0.017,0.75,0.15C83.967,4.947,84.117,5.147,84.15,5.414z M75.9,53.214l-15.25,5.95  c-0.301,0.167-0.617,0.134-0.95-0.1c-0.3-0.233-0.45-0.5-0.45-0.8v-1.801h-3.3v0.9c0,0.267-0.083,0.5-0.25,0.7  c-0.2,0.167-0.45,0.25-0.75,0.25h-9.9c-0.667,0-1-0.317-1-0.95v-0.9h-3.3v1.801c0,0.3-0.133,0.566-0.4,0.8  c-0.333,0.233-0.649,0.267-0.949,0.1L24.1,53.214l2.851,7.051l10.55,1.449c0.566,0.067,0.85,0.367,0.85,0.9l0.601,11.8l4.85,11.45  l0.05,0.1l1.7,5.801l4.45,1.5l4.45-1.5l1.75-5.801l0.05-0.1l4.85-11.45l0.551-11.8c0-0.533,0.283-0.833,0.85-0.9l10.55-1.449  L75.9,53.214z M54.8,87.015l-0.7,1.35c-0.199,0.367-0.5,0.55-0.899,0.55c-0.134,0-0.283-0.05-0.45-0.149  c-0.233-0.134-0.4-0.334-0.5-0.601c-0.066-0.267-0.033-0.517,0.1-0.75l0.75-1.3c0.134-0.233,0.334-0.4,0.601-0.5  c0.267-0.066,0.517-0.033,0.75,0.1c0.2,0.134,0.35,0.317,0.45,0.551C54.967,86.531,54.934,86.781,54.8,87.015z M46.95,86.114  l0.7,1.3c0.133,0.233,0.166,0.483,0.1,0.75c-0.1,0.267-0.25,0.467-0.45,0.601c-0.133,0.1-0.283,0.149-0.45,0.149  c-0.399,0-0.699-0.183-0.899-0.55l-0.75-1.35c-0.134-0.233-0.167-0.483-0.101-0.75c0.101-0.233,0.268-0.417,0.5-0.551  c0.233-0.133,0.483-0.166,0.75-0.1C46.617,85.714,46.816,85.881,46.95,86.114z"
                ></path>
            </g>
            <g
                id="SvgjsG3121"
                featurekey="nameFeature-0"
                transform="matrix(2.058339110865991,0,0,2.058339110865991,-0.8233348591523387,153.35662393520954)"
                fill="#ffffff"
            >
                <path
                    d="M0.4 11.600000000000001 l0 -3.6 l12 0 l0 3.6 l-4 0 l0 28.4 l-4 0 l0 -28.4 l-4 0 z M14.8 40 l0 -32 l6.48 0 c4.12 0 5.52 2.52 5.52 7.36 c0 4.36 -0.52 6.84 -1.76 8.04 l0 0.24 c1.04 0.36 1.36 2.24 1.76 6.92 l0.8 9.44 l-4 0 l-0.52 -9.44 c-0.28 -4.76 -1 -5.76 -2.2 -5.76 l-2.08 0 l0 15.2 l-4 0 z M18.8 21.6 l2.48 0 c1.4 0 1.8 -1.4 1.8 -6.24 c0 -3.16 -0.6 -4.16 -1.8 -4.16 l-2.48 0 l0 10.4 z M30.400000000000002 23.16 c0 -11.16 0.24 -15.56 6.24 -15.56 s6.24 4.4 6.24 15.56 c0 12.8 -0.24 17.24 -6.24 17.24 s-6.24 -4.44 -6.24 -17.24 z M34.4 23.16 c0 11.56 0 13.24 2.24 13.24 s2.24 -1.68 2.24 -13.24 c0 -10.4 0 -12.36 -2.24 -12.36 s-2.24 1.96 -2.24 12.36 z M46.480000000000004 40 l0 -32 l6.48 0 c4.12 0 5.2 2.52 5.52 8.56 l0 1.28 c-0.32 6.04 -1.4 8.56 -5.52 8.56 l-2.48 0 l0 13.6 l-4 0 z M50.480000000000004 23.2 l2.48 0 c1.2 0 1.64 -1 1.8 -5.36 l0 -1.28 c-0.16 -4.36 -0.6 -5.36 -1.8 -5.36 l-2.48 0 l0 12 z M61.28 40 l0 -32 l4 0 l0 13.6 l4 0 l0 -13.6 l4 0 l0 32 l-4 0 l0 -15.2 l-4 0 l0 15.2 l-4 0 z M75.68 8 l4 0 l2.4 12.32 l0.4 0 l2.4 -12.32 l4 0 l-4.6 18.08 l0 13.92 l-4 0 l0 -13.92 z M98.48 11.600000000000001 l0 -3.6 l12 0 l0 3.6 l-4 0 l0 28.4 l-4 0 l0 -28.4 l-4 0 z M112.88 40 l0 -32 l6.48 0 c4.12 0 5.52 2.52 5.52 7.36 c0 4.36 -0.52 6.84 -1.76 8.04 l0 0.24 c1.04 0.36 1.36 2.24 1.76 6.92 l0.8 9.44 l-4 0 l-0.52 -9.44 c-0.28 -4.76 -1 -5.76 -2.2 -5.76 l-2.08 0 l0 15.2 l-4 0 z M116.88 21.6 l2.48 0 c1.4 0 1.8 -1.4 1.8 -6.24 c0 -3.16 -0.6 -4.16 -1.8 -4.16 l-2.48 0 l0 10.4 z M128.88 40 l0 -16.8 c0 -11.16 0 -15.56 6 -15.56 s6 4.4 6 15.56 l0 16.8 l-4 0 l0 -9.2 l-4 0 l0 9.2 l-4 0 z M132.88 27.6 l4 0 l0 -4.4 c0 -10.4 0 -12.36 -2 -12.36 s-2 1.96 -2 12.36 l0 4.4 z M144.48 23.16 c0 -11.16 0 -15.56 5.6 -15.56 c4.12 0 5.24 2.52 5.52 8.56 l-3.72 0 c-0.16 -4.36 -0.6 -5.36 -1.8 -5.36 c-1.84 0 -1.84 1.96 -1.84 12.36 c0 11.56 0 13.24 1.84 13.24 c1.32 0 1.72 -1 1.8 -6.16 l3.76 0 c-0.24 7.4 -1.24 10.16 -5.56 10.16 c-5.6 0 -5.6 -4.44 -5.6 -17.24 z M158.44 40 l0 -32 l4 0 l0 12.68 l4 -12.68 l4 0 l-4.8 15.2 l4.8 16.8 l-4 0 l-4 -14 l0 14 l-4 0 z"
                ></path>
            </g>
            <g
                id="SvgjsG3122"
                featurekey="sloganFeature-0"
                transform="matrix(0.5298295324943181,0,0,0.5298295324943181,34.46899302756037,254.41443283136317)"
                fill="#ffffff"
            >
                <path
                    d="M1.02 6.539999999999999 c0 0.96 -0.04 11.28 0 12.2 c0.02 0.22 0.02 0.44 0.02 0.66 c0 0.16 0.1 0.26 0.24 0.32 c0.12 0.04 0.28 0.08 0.4 0.08 c0.58 -0.06 1.2 0 1.8 -0.02 c1.04 0.08 1.98 -0.16 2.88 -0.64 c0.84 -0.48 1.3 -1.34 1.62 -2.24 c0.26 -0.76 0.22 -1.66 0.08 -2.44 c-0.12 -0.7 -0.44 -1.38 -0.86 -1.94 c-0.06 -0.08 -0.92 -0.62 -0.88 -0.66 c0.52 -0.74 1.26 -1.36 1.36 -2.28 c0.08 -0.8 -0.1 -1.62 -0.38 -2.36 c-0.18 -0.48 -0.42 -0.94 -0.8 -1.3 c-0.64 -0.6 -1.6 -0.86 -2.44 -0.94 c-0.86 -0.08 -1.66 -0.02 -2.52 -0.06 c-0.3 0 -0.44 0.12 -0.44 0.44 c0 0.42 -0.08 0.76 -0.08 1.18 z M3.48 10.18 c-0.02 -0.22 0 -1.98 -0.04 -2.64 c-0.02 -0.24 0.12 -0.36 0.38 -0.3 c0.2 0.04 0.36 0.06 0.52 0.18 c0.5 0.38 0.88 0.84 0.9 1.48 c0 0.32 0 0.64 -0.12 0.94 c-0.14 0.36 -0.34 0.64 -0.7 0.82 c-0.24 0.12 -0.46 0.26 -0.7 0.36 c-0.12 0.04 -0.24 -0.02 -0.26 -0.14 c0 -0.24 0.02 -0.7 0.02 -0.7 z M5.48 15.48 c0 0.1 -0.02 0.28 -0.02 0.46 c-0.02 0.6 -0.8 1.36 -1.7 1.38 c-0.06 0 -0.16 -0.06 -0.18 -0.12 c-0.04 -0.12 -0.08 -0.26 -0.08 -0.4 c-0.02 -0.62 0 -1.22 0 -1.88 c0.06 -0.42 0.02 -0.86 0.02 -1.3 c0.02 -0.34 0.1 -0.4 0.42 -0.46 c0.48 -0.06 0.92 0.14 1.14 0.52 c0.26 0.46 0.36 0.96 0.4 1.48 l0 0.32 z M24.298 15.9 l-0.02 0 c0 0.5 -0.02 1.02 0 1.54 c0.02 0.64 0.06 1.28 0.1 1.92 c0 0.22 0.06 0.28 0.26 0.32 c0.42 0.1 0.82 0.12 1.24 0.12 c1.08 -0.04 2.16 0.04 3.24 0 c0.44 -0.02 0.64 0.02 1.08 -0.06 c0.4 -0.08 0.54 -0.3 0.54 -0.9 c-0.04 -0.38 -0.02 -0.54 -0.02 -1 c0 -0.66 -0.46 -0.88 -0.86 -0.86 c-0.28 0.02 -1.62 -0.02 -2.16 -0.02 c-0.9 0.02 -0.76 0.14 -0.76 -0.8 c0 -0.76 0.02 -1.74 0.02 -2.52 c0 -0.42 0.04 -0.56 0.44 -0.56 l2.5 0 c0.4 0.06 0.68 -0.22 0.68 -0.64 s0.04 -0.44 0.04 -0.86 l-0.06 -0.6 c-0.04 -0.34 -0.16 -0.46 -0.5 -0.46 c-0.22 0 -0.44 0.02 -0.66 0.04 c-0.86 0.06 -1.26 -0.06 -2.1 0 c-0.28 0 -0.32 -0.04 -0.34 -0.3 c-0.08 -0.78 0 -1.64 0.08 -2.42 c0.02 -0.32 0.1 -0.38 0.4 -0.4 l2.82 -0.02 c0.38 -0.04 0.5 -0.02 0.48 -0.4 c-0.04 -0.58 0.02 -1.18 -0.04 -1.76 c-0.04 -0.32 -0.14 -0.38 -0.5 -0.38 c-0.6 0.02 -0.74 0.02 -1.34 0.06 c-0.6 0.02 -3 0.02 -3.58 0.02 c-0.84 0 -0.9 -0.06 -0.92 0.96 c-0.04 0.8 -0.02 1.62 -0.02 2.44 c0 1.4 -0.08 6.42 -0.04 7.54 z M76.47399999999999 8.68 c0.42 1.24 0.52 2.58 0.52 3.9 c0 1.1 -0.2 2.16 -0.48 3.22 c-0.36 1.26 -0.96 2.4 -2.04 3.14 c-0.8 0.58 -1.64 0.96 -2.62 1.06 c-0.14 0 -0.26 0.02 -0.4 0.02 c-0.12 0 -0.24 -0.02 -0.38 -0.02 c-0.98 -0.1 -1.82 -0.48 -2.64 -1.06 c-1.06 -0.74 -1.68 -1.88 -2.02 -3.14 c-0.3 -1.06 -0.48 -2.12 -0.48 -3.22 c0 -1.32 0.1 -2.66 0.52 -3.9 c0.74 -2.14 2.78 -3.66 5 -3.7 c2.22 0.04 4.26 1.56 5.02 3.7 z M74.53399999999999 14.04 c0.2 -1.22 0.12 -2.46 -0.12 -3.68 c-0.24 -1.1 -0.72 -2.18 -1.64 -2.84 c-0.16 -0.12 -0.34 -0.22 -0.52 -0.28 c-0.26 -0.12 -0.54 -0.16 -0.8 -0.16 s-0.52 0.04 -0.78 0.16 c-0.2 0.06 -0.36 0.16 -0.52 0.28 c-0.94 0.66 -1.42 1.74 -1.64 2.84 c-0.24 1.22 -0.32 2.46 -0.12 3.68 c0.2 1.1 0.6 2.58 1.64 3.14 c0.44 0.24 0.92 0.4 1.42 0.42 c0.5 -0.02 1 -0.18 1.44 -0.42 c1.04 -0.56 1.44 -2.04 1.64 -3.14 z M101.612 5.460000000000001 c0.06 0.28 0.02 13.6 0.02 13.94 c0 0.6 -0.22 0.58 -0.62 0.58 c-0.6 0 -1.44 0.1 -1.62 -0.1 c-0.16 -0.14 -3.12 -7.28 -3.54 -8.18 c-0.04 -0.08 -0.14 -0.28 -0.22 -0.24 c-0.1 0.04 -0.06 0.18 -0.06 0.26 c-0.02 0.7 0.1 6.74 0.1 7.7 c0 0.48 -0.02 0.56 -0.42 0.56 l-1 0 c-0.26 0 -0.58 -0.02 -0.84 0.02 c-0.2 0 -0.3 -0.06 -0.32 -0.26 l0 -1.58 c0.04 -1.68 0 -11.64 0 -12.38 c0 -0.64 0.18 -0.76 0.82 -0.76 c0.44 -0.02 0.88 -0.02 1.32 -0.02 c0.14 0 0.22 0.02 0.3 0.2 c0.54 1.26 2.84 7.04 3.2 7.74 c0.06 0.14 0.28 0.7 0.4 0.76 l0.02 0 c0.08 -0.08 0.06 -0.48 0.06 -0.6 c0 -0.3 -0.16 -7.32 -0.16 -7.46 c0 -0.2 -0.06 -0.38 0.04 -0.52 c0.06 -0.08 0.32 -0.1 0.42 -0.12 c0.56 -0.04 1.22 0.02 1.78 0 c0.28 0 0.26 0.2 0.32 0.46 z M136.86800000000002 7.619999999999999 c0.02 1.18 0.02 11.2 0.02 12.02 c0 0.3 0.04 0.36 0.34 0.36 c0.68 0 0.68 0.02 1.36 0 c0.14 0 0.38 0 0.5 -0.06 c0.14 -0.06 0.06 -4.78 0.06 -5.04 c0 -0.28 0.56 -0.22 0.72 -0.22 c3.34 0 4.26 -2.4 4.26 -4.44 c0 -1.84 -0.36 -5.24 -4.52 -5.24 c-0.72 0 -1.46 0.02 -2.16 0.02 c-0.16 0 -0.36 -0.02 -0.5 0.08 c-0.16 0.12 -0.1 1.9 -0.08 2.52 z M139.168 11.74 c0 -0.44 -0.02 -3.06 0 -3.86 c0 -0.12 -0.02 -0.26 0 -0.4 c0.06 -0.22 0.32 -0.22 0.52 -0.2 c1.16 0.08 1.82 1.1 1.92 2.18 c0.08 0.78 -0.02 1.94 -0.58 2.56 c-0.4 0.42 -0.92 0.68 -1.6 0.68 c-0.14 0 -0.28 -0.16 -0.28 -0.3 c0 -0.22 0 -0.44 0.02 -0.66 z M170.766 8.68 c0.42 1.24 0.52 2.58 0.52 3.9 c0 1.1 -0.2 2.16 -0.48 3.22 c-0.36 1.26 -0.96 2.4 -2.04 3.14 c-0.8 0.58 -1.64 0.96 -2.62 1.06 c-0.14 0 -0.26 0.02 -0.4 0.02 c-0.12 0 -0.24 -0.02 -0.38 -0.02 c-0.98 -0.1 -1.82 -0.48 -2.64 -1.06 c-1.06 -0.74 -1.68 -1.88 -2.02 -3.14 c-0.3 -1.06 -0.48 -2.12 -0.48 -3.22 c0 -1.32 0.1 -2.66 0.52 -3.9 c0.74 -2.14 2.78 -3.66 5 -3.7 c2.22 0.04 4.26 1.56 5.02 3.7 z M168.826 14.04 c0.2 -1.22 0.12 -2.46 -0.12 -3.68 c-0.24 -1.1 -0.72 -2.18 -1.64 -2.84 c-0.16 -0.12 -0.34 -0.22 -0.52 -0.28 c-0.26 -0.12 -0.54 -0.16 -0.8 -0.16 s-0.52 0.04 -0.78 0.16 c-0.2 0.06 -0.36 0.16 -0.52 0.28 c-0.94 0.66 -1.42 1.74 -1.64 2.84 c-0.24 1.22 -0.32 2.46 -0.12 3.68 c0.2 1.1 0.6 2.58 1.64 3.14 c0.44 0.24 0.92 0.4 1.42 0.42 c0.5 -0.02 1 -0.18 1.44 -0.42 c1.04 -0.56 1.44 -2.04 1.64 -3.14 z M190.144 14.84 c-0.06 -2.28 -0.04 -4.7 -0.02 -6.96 c0 -0.7 -0.04 -1.46 -0.04 -2.16 c0 -0.76 -0.3 -0.72 -0.7 -0.74 c-0.58 -0.02 -0.84 -0.02 -1.42 -0.02 c-0.38 -0.02 -0.54 0.08 -0.54 0.46 c0 1.96 -0.06 7.5 -0.04 8.3 s0.1 4.44 0.06 5.24 c-0.02 0.28 0 0.56 0.02 0.84 c0.02 0.1 0.08 0.2 0.24 0.2 c0.66 -0.04 1.28 -0.04 1.94 -0.06 c0.24 -0.02 0.44 -0.08 0.54 -0.34 c0.02 -0.14 -0.04 -3.8 -0.04 -4.76 z M214.80200000000002 5.460000000000001 c0.06 0.28 0.02 13.6 0.02 13.94 c0 0.6 -0.22 0.58 -0.62 0.58 c-0.6 0 -1.44 0.1 -1.62 -0.1 c-0.16 -0.14 -3.12 -7.28 -3.54 -8.18 c-0.04 -0.08 -0.14 -0.28 -0.22 -0.24 c-0.1 0.04 -0.06 0.18 -0.06 0.26 c-0.02 0.7 0.1 6.74 0.1 7.7 c0 0.48 -0.02 0.56 -0.42 0.56 l-1 0 c-0.26 0 -0.58 -0.02 -0.84 0.02 c-0.2 0 -0.3 -0.06 -0.32 -0.26 l0 -1.58 c0.04 -1.68 0 -11.64 0 -12.38 c0 -0.64 0.18 -0.76 0.82 -0.76 c0.44 -0.02 0.88 -0.02 1.32 -0.02 c0.14 0 0.22 0.02 0.3 0.2 c0.54 1.26 2.84 7.04 3.2 7.74 c0.06 0.14 0.28 0.7 0.4 0.76 l0.02 0 c0.08 -0.08 0.06 -0.48 0.06 -0.6 c0 -0.3 -0.16 -7.32 -0.16 -7.46 c0 -0.2 -0.06 -0.38 0.04 -0.52 c0.06 -0.08 0.32 -0.1 0.42 -0.12 c0.56 -0.04 1.22 0.02 1.78 0 c0.28 0 0.26 0.2 0.32 0.46 z M233.48 17.82 c0.02 0.62 0.02 1.24 0.04 1.86 c0 0.28 0.02 0.32 0.3 0.32 l1.8 0 c0.38 0 0.3 -0.64 0.28 -0.98 l0.06 -11.2 c0 -0.3 0.1 -0.4 0.5 -0.4 l1.76 0 c0.42 0 0.32 -0.72 0.32 -1.22 c0 -0.44 0.16 -1.2 -0.32 -1.2 c-0.34 0 -3.6 0 -4.94 0.02 c-0.66 0 -1.2 -0.02 -1.86 -0.02 c-0.5 0 -0.48 0.4 -0.48 1.28 c0 0.56 -0.02 1.12 0.46 1.12 c0.28 0 1.42 0 1.74 0.02 c0.2 0 0.34 0.06 0.38 0.28 c0 0.06 0.02 0.12 0.02 0.18 c0 1.44 -0.1 8.14 -0.06 9.94 z M255.398 19.24 l0.42 -0.86 c0.06 -0.14 0.12 -0.3 0.18 -0.44 c0.04 -0.08 0.08 -0.34 0.18 -0.32 c0.04 0 0.08 0.02 0.1 0.04 c0.42 0.22 0.82 0.46 1.2 0.72 c0.06 0.04 0.12 0.08 0.16 0.12 c0.14 0.2 -0.08 0.48 -0.2 0.62 c-0.1 0.18 -0.24 0.32 -0.38 0.46 c-0.04 0.06 -0.14 0.14 -0.2 0.2 c-0.56 0.54 -1.14 1.06 -1.78 1.52 c-0.1 0.06 -0.2 0.14 -0.32 0.16 c-0.12 0.04 -0.28 0.02 -0.36 -0.1 c-0.06 -0.12 -0.04 -0.28 0 -0.4 c0.14 -0.38 0.38 -0.7 0.58 -1.04 c0.04 -0.04 0.06 -0.08 0.1 -0.14 z M292.69399999999996 15.9 l-0.02 0 c0 0.5 -0.02 1.02 0 1.54 c0.02 0.64 0.06 1.28 0.1 1.92 c0 0.22 0.06 0.28 0.26 0.32 c0.42 0.1 0.82 0.12 1.24 0.12 c1.08 -0.04 2.16 0.04 3.24 0 c0.44 -0.02 0.64 0.02 1.08 -0.06 c0.4 -0.08 0.54 -0.3 0.54 -0.9 c-0.04 -0.38 -0.02 -0.54 -0.02 -1 c0 -0.66 -0.46 -0.88 -0.86 -0.86 c-0.28 0.02 -1.62 -0.02 -2.16 -0.02 c-0.9 0.02 -0.76 0.14 -0.76 -0.8 c0 -0.76 0.02 -1.74 0.02 -2.52 c0 -0.42 0.04 -0.56 0.44 -0.56 l2.5 0 c0.4 0.06 0.68 -0.22 0.68 -0.64 s0.04 -0.44 0.04 -0.86 l-0.06 -0.6 c-0.04 -0.34 -0.16 -0.46 -0.5 -0.46 c-0.22 0 -0.44 0.02 -0.66 0.04 c-0.86 0.06 -1.26 -0.06 -2.1 0 c-0.28 0 -0.32 -0.04 -0.34 -0.3 c-0.08 -0.78 0 -1.64 0.08 -2.42 c0.02 -0.32 0.1 -0.38 0.4 -0.4 l2.82 -0.02 c0.38 -0.04 0.5 -0.02 0.48 -0.4 c-0.04 -0.58 0.02 -1.18 -0.04 -1.76 c-0.04 -0.32 -0.14 -0.38 -0.5 -0.38 c-0.6 0.02 -0.74 0.02 -1.34 0.06 c-0.6 0.02 -3 0.02 -3.58 0.02 c-0.84 0 -0.9 -0.06 -0.92 0.96 c-0.04 0.8 -0.02 1.62 -0.02 2.44 c0 1.4 -0.08 6.42 -0.04 7.54 z M319.61199999999997 20.02 c0.3 0 1.4 0.02 1.62 -0.02 c0.14 -0.04 0.22 -0.4 0.26 -0.52 c0.12 -0.38 0.2 -0.78 0.3 -1.16 c0.22 -1 2.44 -9.4 3.22 -12.54 c0.04 -0.14 0.08 -0.3 0.04 -0.44 c-0.06 -0.3 -0.24 -0.34 -0.48 -0.34 c-0.46 0.02 -0.92 0 -1.38 0 c-0.52 0 -0.72 0.06 -0.88 0.64 c-0.78 2.68 -1.3 5.88 -2.02 8.6 l-0.12 0.32 c0 0.02 -0.08 0 -0.08 0 c-0.04 -0.1 -0.1 -0.18 -0.12 -0.28 c-0.72 -2.86 -1.9 -8.52 -2.1 -9.06 c-0.12 -0.32 -0.42 -0.22 -0.7 -0.22 c-0.56 0 -1.08 0.02 -1.62 0.02 c-0.2 0.02 -0.34 0.1 -0.32 0.3 c0 0.16 0.22 1.04 0.26 1.28 l0.22 0.84 c0.14 0.64 0.34 1.44 0.48 2.06 c0.76 3.18 1.58 6.36 2.48 9.5 c0.08 0.28 0.14 0.76 0.34 0.92 c0.16 0.14 0.42 0.08 0.6 0.1 z M341.18999999999994 15.9 l-0.02 0 c0 0.5 -0.02 1.02 0 1.54 c0.02 0.64 0.06 1.28 0.1 1.92 c0 0.22 0.06 0.28 0.26 0.32 c0.42 0.1 0.82 0.12 1.24 0.12 c1.08 -0.04 2.16 0.04 3.24 0 c0.44 -0.02 0.64 0.02 1.08 -0.06 c0.4 -0.08 0.54 -0.3 0.54 -0.9 c-0.04 -0.38 -0.02 -0.54 -0.02 -1 c0 -0.66 -0.46 -0.88 -0.86 -0.86 c-0.28 0.02 -1.62 -0.02 -2.16 -0.02 c-0.9 0.02 -0.76 0.14 -0.76 -0.8 c0 -0.76 0.02 -1.74 0.02 -2.52 c0 -0.42 0.04 -0.56 0.44 -0.56 l2.5 0 c0.4 0.06 0.68 -0.22 0.68 -0.64 s0.04 -0.44 0.04 -0.86 l-0.06 -0.6 c-0.04 -0.34 -0.16 -0.46 -0.5 -0.46 c-0.22 0 -0.44 0.02 -0.66 0.04 c-0.86 0.06 -1.26 -0.06 -2.1 0 c-0.28 0 -0.32 -0.04 -0.34 -0.3 c-0.08 -0.78 0 -1.64 0.08 -2.42 c0.02 -0.32 0.1 -0.38 0.4 -0.4 l2.82 -0.02 c0.38 -0.04 0.5 -0.02 0.48 -0.4 c-0.04 -0.58 0.02 -1.18 -0.04 -1.76 c-0.04 -0.32 -0.14 -0.38 -0.5 -0.38 c-0.6 0.02 -0.74 0.02 -1.34 0.06 c-0.6 0.02 -3 0.02 -3.58 0.02 c-0.84 0 -0.9 -0.06 -0.92 0.96 c-0.04 0.8 -0.02 1.62 -0.02 2.44 c0 1.4 -0.08 6.42 -0.04 7.54 z M366.20799999999997 18.5 c0 -0.52 0 -3.8 0.02 -4.06 c0.02 -0.06 0.06 -0.18 0.14 -0.18 s0.12 0.04 0.14 0.1 c0.8 1.56 1.5 3.12 2.22 4.64 c0.1 0.22 0.32 0.86 0.38 0.92 c0.08 0.12 0.22 0.08 0.34 0.08 l2.2 0.02 c0.26 0 0.32 -0.16 0.26 -0.38 c-0.16 -0.6 -1.3 -2.72 -1.56 -3.24 c-0.18 -0.4 -1.38 -2.72 -1.42 -2.9 c-0.04 -0.08 0.26 -0.22 0.3 -0.28 c0.96 -0.86 1.82 -1.74 2 -3.08 c0.2 -1.32 -0.1 -2.76 -0.96 -3.82 c-0.66 -0.78 -1.52 -1.24 -2.54 -1.3 c-0.62 -0.04 -1.22 0.02 -1.84 0 c-0.54 -0.02 -0.92 -0.02 -1.6 -0.02 c-0.32 0 -0.52 0.18 -0.54 0.52 l0 0.24 c-0.04 1.54 0 3.08 0.02 4.6 c0 2.32 -0.04 8.44 -0.04 9.32 c0 0.26 0.04 0.32 0.28 0.32 c0.14 0 0.3 0.02 0.44 0.02 c0.56 0 0.9 -0.02 1.48 -0.02 c0.44 0 0.28 -0.72 0.28 -1.5 z M366.20799999999997 10.7 l0.02 -2.02 c0.02 -0.3 -0.08 -0.9 0.2 -1.12 c0.38 -0.28 1.16 0 1.5 0.24 c1 0.68 0.92 2.36 0.38 3.3 c-0.26 0.44 -0.7 0.7 -1.2 0.84 c-0.3 0.08 -0.86 0.18 -0.88 -0.3 c0 -0.32 -0.02 -0.94 -0.02 -0.94 z M391.64599999999996 13.879999999999999 l0.02 5.84 c0 0.22 0.2 0.3 0.36 0.3 l1.84 0 c0.34 0 0.34 -0.3 0.34 -0.44 c0 -1.88 0 -3.9 0.08 -5.8 c0 -0.32 0.04 -0.62 0.2 -0.92 c0.18 -0.3 2.84 -6.24 3.14 -7.22 c0.04 -0.14 0.12 -0.38 -0.02 -0.5 c-0.24 -0.22 -1.2 -0.12 -1.78 -0.12 c-0.36 0 -0.58 0.14 -0.74 0.5 c-0.68 1.58 -1.38 3.14 -2.08 4.72 c-0.06 0.14 -0.14 0.14 -0.24 0 c-0.22 -0.36 -1.64 -3.88 -1.86 -4.66 c-0.04 -0.1 -0.06 -0.2 -0.12 -0.28 c-0.28 -0.32 -0.74 -0.28 -1.12 -0.28 c-0.5 0 -0.86 0.02 -1.34 0.02 c-0.32 0 -0.34 0.3 -0.28 0.56 c0.02 0.1 0.08 0.2 0.12 0.28 c0.76 1.44 2.9 6.2 3.28 7.1 c0.2 0.42 0.18 0.44 0.2 0.9 z M435.42199999999997 17.82 c0.02 0.62 0.02 1.24 0.04 1.86 c0 0.28 0.02 0.32 0.3 0.32 l1.8 0 c0.38 0 0.3 -0.64 0.28 -0.98 l0.06 -11.2 c0 -0.3 0.1 -0.4 0.5 -0.4 l1.76 0 c0.42 0 0.32 -0.72 0.32 -1.22 c0 -0.44 0.16 -1.2 -0.32 -1.2 c-0.34 0 -3.6 0 -4.94 0.02 c-0.66 0 -1.2 -0.02 -1.86 -0.02 c-0.5 0 -0.48 0.4 -0.48 1.28 c0 0.56 -0.02 1.12 0.46 1.12 c0.28 0 1.42 0 1.74 0.02 c0.2 0 0.34 0.06 0.38 0.28 c0 0.06 0.02 0.12 0.02 0.18 c0 1.44 -0.1 8.14 -0.06 9.94 z M459.35999999999996 14.84 c-0.06 -2.28 -0.04 -4.7 -0.02 -6.96 c0 -0.7 -0.04 -1.46 -0.04 -2.16 c0 -0.76 -0.3 -0.72 -0.7 -0.74 c-0.58 -0.02 -0.84 -0.02 -1.42 -0.02 c-0.38 -0.02 -0.54 0.08 -0.54 0.46 c0 1.96 -0.06 7.5 -0.04 8.3 s0.1 4.44 0.06 5.24 c-0.02 0.28 0 0.56 0.02 0.84 c0.02 0.1 0.08 0.2 0.24 0.2 c0.66 -0.04 1.28 -0.04 1.94 -0.06 c0.24 -0.02 0.44 -0.08 0.54 -0.34 c0.02 -0.14 -0.04 -3.8 -0.04 -4.76 z M478.39799999999997 5.02 c-0.2 0 -0.4 0.02 -0.6 0.02 c-0.3 0 -0.66 -0.06 -0.72 0.34 c-0.2 1.7 -0.38 3.58 -0.58 5.28 c-0.34 2.8 -0.66 5.68 -0.98 8.48 c-0.04 0.38 -0.08 0.74 0.34 0.82 c0.64 0.04 1.12 0.04 1.66 0.02 c0.2 0.02 0.42 0.04 0.48 -0.2 c0.04 -0.1 0.04 -0.2 0.04 -0.3 c0.04 -0.46 0.64 -6.22 0.88 -6.22 c0.38 0 1.38 4.68 1.86 6.4 c0.06 0.24 0.18 0.34 0.42 0.32 c0.5 -0.04 0.98 0 1.48 0 s0.4 -0.32 0.5 -0.74 c0.12 -0.46 1.28 -6 1.56 -6 c0.32 0 0.98 6.42 1.04 6.56 c0.12 0.28 0.46 0.16 0.7 0.16 c0.36 0 0.7 0.04 1.16 0 c0.34 -0.04 0.68 0.08 0.7 -0.36 c0 -0.1 -0.04 -0.2 -0.06 -0.3 c-0.08 -0.5 -0.18 -1.1 -0.28 -1.6 c-0.14 -1.04 -0.34 -2.06 -0.48 -3.1 c-0.2 -1.64 -0.4 -3.28 -0.58 -4.92 c-0.14 -1.4 -0.34 -2.98 -0.46 -4.38 c-0.04 -0.46 -0.56 -0.3 -0.88 -0.3 l-1.38 0 c-0.22 0 -0.32 0.42 -0.36 0.64 c-0.12 0.56 -1.5 7.78 -1.96 7.78 s-1.94 -6.6 -2.2 -8.04 c-0.06 -0.32 -0.28 -0.42 -0.58 -0.42 z M504.45599999999996 15.9 l-0.02 0 c0 0.5 -0.02 1.02 0 1.54 c0.02 0.64 0.06 1.28 0.1 1.92 c0 0.22 0.06 0.28 0.26 0.32 c0.42 0.1 0.82 0.12 1.24 0.12 c1.08 -0.04 2.16 0.04 3.24 0 c0.44 -0.02 0.64 0.02 1.08 -0.06 c0.4 -0.08 0.54 -0.3 0.54 -0.9 c-0.04 -0.38 -0.02 -0.54 -0.02 -1 c0 -0.66 -0.46 -0.88 -0.86 -0.86 c-0.28 0.02 -1.62 -0.02 -2.16 -0.02 c-0.9 0.02 -0.76 0.14 -0.76 -0.8 c0 -0.76 0.02 -1.74 0.02 -2.52 c0 -0.42 0.04 -0.56 0.44 -0.56 l2.5 0 c0.4 0.06 0.68 -0.22 0.68 -0.64 s0.04 -0.44 0.04 -0.86 l-0.06 -0.6 c-0.04 -0.34 -0.16 -0.46 -0.5 -0.46 c-0.22 0 -0.44 0.02 -0.66 0.04 c-0.86 0.06 -1.26 -0.06 -2.1 0 c-0.28 0 -0.32 -0.04 -0.34 -0.3 c-0.08 -0.78 0 -1.64 0.08 -2.42 c0.02 -0.32 0.1 -0.38 0.4 -0.4 l2.82 -0.02 c0.38 -0.04 0.5 -0.02 0.48 -0.4 c-0.04 -0.58 0.02 -1.18 -0.04 -1.76 c-0.04 -0.32 -0.14 -0.38 -0.5 -0.38 c-0.6 0.02 -0.74 0.02 -1.34 0.06 c-0.6 0.02 -3 0.02 -3.58 0.02 c-0.84 0 -0.9 -0.06 -0.92 0.96 c-0.04 0.8 -0.02 1.62 -0.02 2.44 c0 1.4 -0.08 6.42 -0.04 7.54 z M529.474 18.74 c0 -0.62 -0.48 -1.18 -1.12 -1.24 c-1.36 -0.14 -1.9 1.86 -0.66 2.4 c0.5 0.22 1.12 0.08 1.46 -0.32 c0.22 -0.24 0.32 -0.54 0.32 -0.84 z"
                ></path>
            </g>
        </svg>