<svg class="css-ze2te4 css-qd6ojx" viewBox="0 0 140 148.98545643377614"  xmlns="http://www.w3.org/2000/svg">
    <g
        transform="translate(-12.10409435622149, -7.611405289547377) scale(1.642078990008597)"
        class="css-1e98oqk"
        fill="#ffffff"
    >
        <path
            xmlns="http://www.w3.org/2000/svg"
            fill-rule="evenodd"
            clip-rule="evenodd"
            d="M84.15,5.414l2.35,10.55l4.3-6.6c0.134-0.233,0.333-0.384,0.601-0.45  c0.267-0.066,0.517-0.017,0.75,0.15c0.232,0.133,0.383,0.316,0.449,0.55c0.067,0.267,0.018,0.517-0.149,0.75l-5.3,8.25l1.649,6.85  c0.033,0.233,0,0.467-0.1,0.7l-7.8,13.7l5.399-1.9c0.267-0.1,0.517-0.1,0.75,0c0.267,0.134,0.434,0.334,0.5,0.601  c0.101,0.267,0.101,0.517,0,0.75c-0.133,0.267-0.333,0.433-0.6,0.5l-7.55,2.649L77.8,45.314c-0.167,0.233-0.35,0.366-0.55,0.399  l-18.75,6.95v1.851h1.75c0.667,0,1,0.316,1,0.949v1.351l16.05-6.25c0.4-0.134,0.767-0.067,1.101,0.2  c0.3,0.366,0.366,0.717,0.199,1.05l-3.899,9.75c-0.134,0.3-0.4,0.483-0.8,0.55l-10.301,1.4L63,74.664l-0.05,0.351l-4.9,11.5  l-1.85,6.3c-0.101,0.3-0.317,0.5-0.65,0.6l-5.5,1.95l-5.649-1.95c-0.301-0.1-0.5-0.3-0.601-0.6l-1.85-6.3l-4.9-11.5L37,74.664  l-0.55-11.149l-10.3-1.4c-0.4-0.066-0.667-0.25-0.801-0.55l-3.949-9.75c-0.167-0.333-0.101-0.684,0.199-1.05  c0.334-0.268,0.7-0.334,1.101-0.2l16.1,6.25v-1.351c0-0.633,0.333-0.949,1-0.949h1.7v-1.851l-9.7-3.649h-0.05l-8.95-3.301  c-0.2-0.033-0.383-0.166-0.55-0.399l-1.65-2.851l-7.55-2.649c-0.267-0.067-0.45-0.233-0.55-0.5c-0.1-0.233-0.1-0.483,0-0.75  c0.033-0.267,0.184-0.467,0.45-0.601c0.233-0.1,0.483-0.1,0.75,0l5.45,1.9l-7.801-13.7c-0.1-0.233-0.133-0.467-0.1-0.7l1.55-6.85  l-5.25-8.25C7.383,10.131,7.333,9.881,7.4,9.614c0.066-0.233,0.217-0.417,0.449-0.55c0.233-0.167,0.483-0.217,0.75-0.15  C8.867,8.98,9.05,9.131,9.15,9.364l4.3,6.6l2.399-10.55c0.067-0.267,0.2-0.467,0.4-0.6c0.233-0.167,0.483-0.217,0.75-0.15  s0.467,0.217,0.6,0.45c0.167,0.233,0.217,0.483,0.15,0.75l-4.5,19.65l1.6,2.8l1.2-4.25c0.033-0.267,0.184-0.467,0.45-0.601  c0.233-0.1,0.483-0.116,0.75-0.05c0.267,0.033,0.467,0.184,0.6,0.45c0.134,0.233,0.167,0.483,0.101,0.75l-1.75,6.1l7.55,13.301  l6,2.199l-1.9-3.05c-0.166-0.233-0.217-0.483-0.149-0.75c0.066-0.267,0.217-0.467,0.45-0.6c0.232-0.134,0.482-0.184,0.75-0.15  c0.267,0.067,0.467,0.217,0.6,0.45l3.3,5.2l5.75,2.149l-5.399-11.5c-0.101-0.267-0.101-0.5,0-0.699  c0.1-0.268,0.25-0.467,0.449-0.601c0.268-0.1,0.518-0.1,0.75,0c0.268,0.101,0.467,0.267,0.601,0.5l6.2,13.3l1.75,0.65  c0.399,0.167,0.6,0.467,0.6,0.9v2.5h1.55c0.267,0,0.5,0.1,0.7,0.3c0.2,0.167,0.3,0.383,0.3,0.649v0.9H54v-0.9  c0-0.267,0.1-0.482,0.3-0.649c0.167-0.2,0.384-0.3,0.65-0.3h1.6v-2.5c0-0.434,0.2-0.733,0.601-0.9l1.699-0.65l6.2-13.3  c0.134-0.233,0.333-0.399,0.601-0.5c0.232-0.1,0.482-0.1,0.75,0c0.232,0.134,0.399,0.333,0.5,0.601c0.1,0.199,0.1,0.433,0,0.699  l-5.45,11.5l5.8-2.149l3.3-5.2c0.134-0.233,0.333-0.383,0.601-0.45c0.267-0.066,0.517-0.017,0.75,0.15  c0.199,0.133,0.333,0.333,0.399,0.6c0.067,0.267,0.017,0.517-0.149,0.75l-1.851,3.05l5.95-2.199l7.55-13.301l-1.75-6.1  c-0.066-0.267-0.033-0.517,0.101-0.75c0.133-0.267,0.316-0.417,0.55-0.45c0.267-0.066,0.533-0.05,0.8,0.05  c0.233,0.134,0.383,0.334,0.45,0.601l1.25,4.25l1.55-2.8l-4.5-19.65c-0.066-0.267-0.017-0.517,0.15-0.75  c0.1-0.233,0.283-0.384,0.55-0.45s0.517-0.017,0.75,0.15C83.967,4.947,84.117,5.147,84.15,5.414z M75.9,53.214l-15.25,5.95  c-0.301,0.167-0.617,0.134-0.95-0.1c-0.3-0.233-0.45-0.5-0.45-0.8v-1.801h-3.3v0.9c0,0.267-0.083,0.5-0.25,0.7  c-0.2,0.167-0.45,0.25-0.75,0.25h-9.9c-0.667,0-1-0.317-1-0.95v-0.9h-3.3v1.801c0,0.3-0.133,0.566-0.4,0.8  c-0.333,0.233-0.649,0.267-0.949,0.1L24.1,53.214l2.851,7.051l10.55,1.449c0.566,0.067,0.85,0.367,0.85,0.9l0.601,11.8l4.85,11.45  l0.05,0.1l1.7,5.801l4.45,1.5l4.45-1.5l1.75-5.801l0.05-0.1l4.85-11.45l0.551-11.8c0-0.533,0.283-0.833,0.85-0.9l10.55-1.449  L75.9,53.214z M54.8,87.015l-0.7,1.35c-0.199,0.367-0.5,0.55-0.899,0.55c-0.134,0-0.283-0.05-0.45-0.149  c-0.233-0.134-0.4-0.334-0.5-0.601c-0.066-0.267-0.033-0.517,0.1-0.75l0.75-1.3c0.134-0.233,0.334-0.4,0.601-0.5  c0.267-0.066,0.517-0.033,0.75,0.1c0.2,0.134,0.35,0.317,0.45,0.551C54.967,86.531,54.934,86.781,54.8,87.015z M46.95,86.114  l0.7,1.3c0.133,0.233,0.166,0.483,0.1,0.75c-0.1,0.267-0.25,0.467-0.45,0.601c-0.133,0.1-0.283,0.149-0.45,0.149  c-0.399,0-0.699-0.183-0.899-0.55l-0.75-1.35c-0.134-0.233-0.167-0.483-0.101-0.75c0.101-0.233,0.268-0.417,0.5-0.551  c0.233-0.133,0.483-0.166,0.75-0.1C46.617,85.714,46.816,85.881,46.95,86.114z"
        ></path>
    </g>
</svg>
